<svg width="24" height="24" viewBox="0 0 24 24" fill="none" xmlns="http://www.w3.org/2000/svg">
<path fill-rule="evenodd" clip-rule="evenodd" d="M12.4364 11.0227L10.5444 9.13074L8.08243 6.66774L6.53143 5.11774L4.70743 3.29374C4.31643 2.90274 3.68343 2.90274 3.29243 3.29374C2.90243 3.68374 2.90243 4.31674 3.29243 4.70774L4.66843 6.08374L6.12943 7.54374L8.36343 9.77774L9.90943 11.3237L12.6484 14.0627L15.4414 16.8557L19.2924 20.7077C19.4884 20.9027 19.7444 21.0007 19.9994 21.0007C20.2554 21.0007 20.5114 20.9027 20.7074 20.7077C21.0974 20.3167 21.0974 19.6837 20.7074 19.2937L12.4364 11.0227ZM11.9999 18.0002C11.4469 18.0002 10.9999 18.4482 10.9999 19.0002C10.9999 19.5522 11.4469 20.0002 11.9999 20.0002C12.5529 20.0002 12.9999 19.5522 12.9999 19.0002C12.9999 18.4482 12.5529 18.0002 11.9999 18.0002ZM11.9995 4.00044C15.6475 4.00044 19.1005 5.39544 21.7245 7.92944C22.1215 8.31244 22.1325 8.94644 21.7495 9.34344C21.5535 9.54644 21.2915 9.64844 21.0305 9.64844C20.7805 9.64844 20.5295 9.55544 20.3355 9.36744C18.0855 7.19644 15.1255 6.00044 11.9995 6.00044C11.0365 6.00044 10.0915 6.12744 9.17553 6.34744L7.56053 4.73244C8.97653 4.26044 10.4685 4.00044 11.9995 4.00044ZM3.82413 6.65304C3.28513 7.04304 2.76213 7.46004 2.27513 7.92904C1.87813 8.31304 1.86713 8.94604 2.25013 9.34304C2.63413 9.74104 3.26913 9.75204 3.66413 9.36804C4.16013 8.88904 4.69613 8.46604 5.25613 8.08404L3.82413 6.65304ZM17.7551 13.4429C17.4931 13.4429 17.2311 13.3409 17.0351 13.1379C16.2431 12.3169 15.2581 11.7119 14.1861 11.3589L11.8371 9.00894C11.8622 9.00847 11.8873 9.0065 11.9124 9.00452C11.9415 9.00223 11.9707 8.99994 12.0001 8.99994C14.4281 8.99994 16.7881 10.0019 18.4741 11.7479C18.8571 12.1459 18.8471 12.7789 18.4491 13.1619C18.2561 13.3499 18.0051 13.4429 17.7551 13.4429ZM7.43153 10.2605C6.73753 10.6685 6.09053 11.1625 5.52553 11.7485C5.14253 12.1455 5.15353 12.7795 5.55053 13.1625C5.94653 13.5465 6.58053 13.5355 6.96453 13.1375C7.52653 12.5555 8.18853 12.0885 8.90553 11.7345L7.43153 10.2605ZM8.50223 16.8175C8.11923 16.4205 8.13023 15.7875 8.52723 15.4035C9.27923 14.6765 10.2262 14.2275 11.2442 14.0725L13.7612 16.5905C12.6192 15.7755 10.9412 15.8525 9.91623 16.8415C9.52023 17.2265 8.88623 17.2155 8.50223 16.8175Z" fill="#232729"/>
</svg>
