<svg width="24" height="24" viewBox="0 0 24 24" fill="none" xmlns="http://www.w3.org/2000/svg">
<path fill-rule="evenodd" clip-rule="evenodd" d="M11.9996 4C15.6476 4 19.1006 5.395 21.7246 7.929C22.1216 8.312 22.1326 8.946 21.7496 9.343C21.5536 9.546 21.2916 9.648 21.0306 9.648C20.7806 9.648 20.5296 9.555 20.3356 9.367C18.0856 7.196 15.1256 6 11.9996 6C8.87363 6 5.91363 7.196 3.66363 9.367C3.26863 9.752 2.63463 9.741 2.24963 9.343C1.86763 8.946 1.87763 8.312 2.27563 7.929C4.89963 5.395 8.35263 4 11.9996 4ZM12 8.9998C9.57203 8.9998 7.21203 10.0008 5.52503 11.7478C5.14303 12.1458 5.15303 12.7788 5.55103 13.1618C5.94703 13.5458 6.58203 13.5348 6.96503 13.1378C8.27603 11.7788 10.111 10.9998 12 10.9998C13.889 10.9998 15.724 11.7788 17.035 13.1378C17.231 13.3408 17.493 13.4428 17.755 13.4428C18.005 13.4428 18.256 13.3498 18.449 13.1618C18.847 12.7788 18.857 12.1458 18.475 11.7478C16.788 10.0008 14.428 8.9998 12 8.9998ZM8.52703 15.4028C9.46403 14.4988 10.697 13.9998 12 13.9998C13.303 13.9998 14.536 14.4988 15.473 15.4028C15.87 15.7868 15.881 16.4198 15.498 16.8168C15.302 17.0208 15.04 17.1228 14.778 17.1228C14.528 17.1228 14.277 17.0288 14.084 16.8418C12.959 15.7558 11.041 15.7558 9.91603 16.8418C9.52103 17.2258 8.88703 17.2148 8.50203 16.8168C8.11903 16.4198 8.13003 15.7868 8.52703 15.4028ZM11 18.9998C11 18.4478 11.447 17.9998 12 17.9998C12.553 17.9998 13 18.4478 13 18.9998C13 19.5518 12.553 19.9998 12 19.9998C11.447 19.9998 11 19.5518 11 18.9998Z" fill="#232729"/>
</svg>
