<svg width="24" height="24" viewBox="0 0 24 24" fill="none" xmlns="http://www.w3.org/2000/svg">
<path fill-rule="evenodd" clip-rule="evenodd" d="M11.9999 12.0003C11.7729 12.0003 11.5449 11.9233 11.3599 11.7683L5.35989 6.76831C4.93589 6.41431 4.87889 5.78431 5.23189 5.36031C5.58589 4.93531 6.21489 4.87931 6.63989 5.23231L12.0109 9.70731L17.3729 5.39331C17.8029 5.04731 18.4339 5.11531 18.7789 5.54531C19.1259 5.97531 19.0569 6.60431 18.6269 6.95131L12.6269 11.7793C12.4439 11.9263 12.2219 12.0003 11.9999 12.0003ZM12.011 16.7078L17.373 12.3928C17.803 12.0478 18.434 12.1158 18.779 12.5448C19.125 12.9758 19.057 13.6048 18.627 13.9518L12.627 18.7798C12.444 18.9268 12.222 18.9998 12 18.9998C11.772 18.9998 11.545 18.9228 11.36 18.7678L5.35999 13.7678C4.93499 13.4148 4.87799 12.7848 5.23199 12.3598C5.58499 11.9358 6.21499 11.8778 6.63999 12.2318L12.011 16.7078Z" fill="#232729"/>
</svg>
