<svg width="24" height="24" viewBox="0 0 24 24" fill="none" xmlns="http://www.w3.org/2000/svg">
<path fill-rule="evenodd" clip-rule="evenodd" d="M11.1931 8.36425L11.4551 5.94325L10.3801 7.55125L8.93811 6.11025L12.0581 1.44425C12.3131 1.06025 12.7981 0.902249 13.2301 1.06025C13.6631 1.21725 13.9331 1.65025 13.8831 2.10725L13.1141 9.20025H19.0001C19.3691 9.20025 19.7081 9.40325 19.8821 9.72825C20.0561 10.0542 20.0361 10.4492 19.8311 10.7552L17.3281 14.5002L15.8871 13.0582L17.1291 11.2002H14.0281L11.1931 8.36425ZM20.707 19.2928L4.70701 3.29285C4.31601 2.90185 3.68401 2.90185 3.29301 3.29285C2.90201 3.68385 2.90201 4.31585 3.29301 4.70685L19.293 20.7069C19.488 20.9018 19.744 20.9998 20 20.9998C20.256 20.9998 20.512 20.9018 20.707 20.7069C21.098 20.3158 21.098 19.6838 20.707 19.2928ZM12.5449 18.0564L12.8069 15.6354L9.97191 12.7994H6.87091L8.11291 10.9414L6.67191 9.49945L4.16891 13.2444C3.96391 13.5504 3.94391 13.9454 4.11791 14.2714C4.29191 14.5964 4.63091 14.7994 4.99991 14.7994H10.8859L10.1169 21.8924C10.0669 22.3494 10.3369 22.7824 10.7699 22.9394C10.8819 22.9804 10.9969 22.9994 11.1109 22.9994C11.4379 22.9994 11.7529 22.8394 11.9419 22.5554L15.0619 17.8895L13.6199 16.4484L12.5449 18.0564Z" fill="#232729"/>
</svg>
