<svg width="24" height="24" viewBox="0 0 24 24" fill="none" xmlns="http://www.w3.org/2000/svg">
<path fill-rule="evenodd" clip-rule="evenodd" d="M17.7657 7.39273L11.8987 13.2577C11.7477 13.0317 11.5747 12.8177 11.3777 12.6217C11.1807 12.4247 10.9667 12.2527 10.7407 12.1047L16.6097 6.23773C16.9157 5.93073 17.4577 5.92973 17.7667 6.23873C17.9197 6.39173 18.0027 6.59173 17.9997 6.82773C18.0027 7.03873 17.9187 7.23873 17.7657 7.39273ZM8.24568 17.9407L6.01768 17.9817L6.05668 15.7507C6.07768 14.4847 7.12668 13.4347 8.39568 13.4127C8.40968 13.4127 8.42168 13.4117 8.43568 13.4117C9.01968 13.4117 9.56068 13.6317 9.96368 14.0357C10.3767 14.4477 10.5977 15.0037 10.5877 15.6017C10.5667 16.8697 9.51568 17.9187 8.24568 17.9407ZM19.9997 6.82773C20.0097 6.07173 19.7177 5.35973 19.1807 4.82373C18.1187 3.76273 16.2557 3.75973 15.1957 4.82373L8.58268 11.4337C8.50768 11.4297 8.43568 11.4137 8.36068 11.4127C6.02668 11.4547 4.09568 13.3857 4.05668 15.7167L3.99968 18.9827C3.99468 19.2537 4.10168 19.5157 4.29268 19.7067C4.48068 19.8947 4.73568 19.9997 4.99968 19.9997H5.01868L8.28468 19.9407C10.6167 19.8997 12.5467 17.9687 12.5877 15.6357C12.5887 15.5607 12.5727 15.4897 12.5707 15.4137L19.1797 8.80673C19.7177 8.26873 20.0097 7.55673 19.9997 6.82773Z" fill="#232729"/>
</svg>
