<svg width="24" height="24" viewBox="0 0 24 24" fill="none" xmlns="http://www.w3.org/2000/svg">
<path fill-rule="evenodd" clip-rule="evenodd" d="M21.7792 11.3732L16.9512 5.37318C16.6032 4.94318 15.9742 4.87318 15.5452 5.22118C15.1142 5.56718 15.0472 6.19618 15.3922 6.62718L19.7082 11.9892L15.2312 17.3592C14.8782 17.7842 14.9352 18.4152 15.3592 18.7692C15.5472 18.9242 15.7732 19.0002 15.9992 19.0002C16.2862 19.0002 16.5702 18.8782 16.7682 18.6412L21.7682 12.6412C22.0732 12.2742 22.0782 11.7442 21.7792 11.3732ZM4.29192 12.0109L8.76892 6.64088C9.12192 6.21588 9.06392 5.58488 8.64092 5.23188C8.21492 4.87888 7.58592 4.93588 7.23092 5.35988L2.23092 11.3599C1.92692 11.7259 1.92192 12.2559 2.22092 12.6269L7.04892 18.6269C7.24692 18.8719 7.53592 18.9999 7.82892 18.9999C8.04892 18.9999 8.27092 18.9279 8.45492 18.7799C8.88592 18.4329 8.95292 17.8039 8.60692 17.3729L4.29192 12.0109ZM14.3056 11.3844C14.7016 11.0004 15.3366 11.0134 15.7196 11.4094C16.1026 11.8064 16.0916 12.4394 15.6946 12.8234L12.6946 15.7204C12.5006 15.9064 12.2496 16.0004 11.9996 16.0004C11.7436 16.0004 11.4886 15.9024 11.2926 15.7074L8.29262 12.7074C7.90262 12.3164 7.90262 11.6834 8.29262 11.2934C8.68362 10.9024 9.31662 10.9024 9.70662 11.2934L10.9996 12.5854V8.00038C10.9996 7.44738 11.4476 7.00038 11.9996 7.00038C12.5526 7.00038 12.9996 7.44738 12.9996 8.00038V12.6444L14.3056 11.3844Z" fill="#232729"/>
</svg>
