<svg width="24" height="24" viewBox="0 0 24 24" fill="none" xmlns="http://www.w3.org/2000/svg">
<path fill-rule="evenodd" clip-rule="evenodd" d="M16.4155 8.99876L19.0005 8.99976C19.5525 8.99976 20.0005 9.44776 20.0005 10.0008C19.9995 10.5528 19.5515 10.9998 19.0005 10.9998H18.9995L14.0245 10.9968C13.4745 10.9968 13.0275 10.5518 13.0245 10.0018L13.0005 5.00476C12.9975 4.45276 13.4425 4.00276 13.9955 3.99976H14.0005C14.5505 3.99976 14.9975 4.44376 15.0005 4.99476L15.0125 7.57276L18.2925 4.29276C18.6835 3.90176 19.3165 3.90176 19.7075 4.29276C20.0975 4.68376 20.0975 5.31576 19.7075 5.70676L16.4155 8.99876ZM5.00449 13.0002L10.0015 13.0252C10.5515 13.0282 10.9965 13.4742 10.9965 14.0242L11.0005 18.9992C11.0005 19.5512 10.5525 20.0002 10.0005 20.0002C9.44749 20.0002 9.00049 19.5522 9.00049 19.0012L8.99849 16.4162L5.70749 19.7072C5.51149 19.9022 5.25549 20.0002 5.00049 20.0002C4.74449 20.0002 4.48849 19.9022 4.29349 19.7072C3.90249 19.3162 3.90249 18.6832 4.29349 18.2932L7.57249 15.0132L4.99549 15.0002C4.44249 14.9972 3.99749 14.5462 4.00049 13.9952C4.00249 13.4442 4.45049 13.0002 5.00049 13.0002H5.00449Z" fill="#232729"/>
</svg>
