<svg width="24" height="24" viewBox="0 0 24 24" fill="none" xmlns="http://www.w3.org/2000/svg">
<path fill-rule="evenodd" clip-rule="evenodd" d="M18.6903 15.963L13.0003 18.607V11.891L19.0003 9.10404V15.539C19.0003 15.713 18.8823 15.875 18.6903 15.963ZM5.30333 15.964C5.11433 15.876 4.99833 15.714 5.00033 15.532V9.10404L11.0003 11.891V18.609L5.30333 15.964ZM11.7073 5.06404C11.7983 5.02104 11.8993 5.00004 12.0003 5.00004C12.1003 5.00004 12.2013 5.02104 12.2923 5.06404L17.6213 7.53804L12.0003 10.15L6.37833 7.53804L11.7073 5.06404ZM20.6563 7.25904C20.6533 7.25104 20.6543 7.24204 20.6503 7.23404C20.6473 7.22604 20.6393 7.22104 20.6343 7.21304C20.5883 7.13704 20.5323 7.07004 20.4793 7.00004C20.4483 6.96604 20.4233 6.92804 20.3893 6.89904C20.1543 6.62304 19.8773 6.38004 19.5333 6.22104L13.1333 3.24804C13.1323 3.24804 13.1313 3.24804 13.1313 3.24704C12.4123 2.91504 11.5873 2.91604 10.8663 3.24804L4.46933 6.22004C4.12533 6.37904 3.84733 6.62104 3.61233 6.89704C3.57533 6.92804 3.54833 6.97004 3.51533 7.00704C3.46333 7.07404 3.41033 7.13904 3.36633 7.21104C3.36133 7.22004 3.35333 7.22604 3.34933 7.23404C3.34533 7.24304 3.34633 7.25204 3.34233 7.26104C3.13133 7.62304 3.00033 8.03004 3.00033 8.45804V15.525C2.99233 16.475 3.56433 17.359 4.45833 17.777L10.8573 20.749C11.2193 20.918 11.6073 21.002 11.9963 21.002C12.3843 21.002 12.7723 20.918 13.1333 20.75L19.5303 17.778C20.4223 17.366 20.9993 16.488 21.0003 15.54V8.45704C20.9993 8.02904 20.8683 7.62204 20.6563 7.25904Z" fill="#232729"/>
</svg>
