<svg width="24" height="24" viewBox="0 0 24 24" fill="none" xmlns="http://www.w3.org/2000/svg">
<path fill-rule="evenodd" clip-rule="evenodd" d="M15.5077 17.0065C14.6847 17.0065 14.0157 16.3375 14.0157 15.5145C14.0157 14.6915 14.6847 14.0225 15.5077 14.0225C16.2287 14.0225 16.8297 14.5345 16.9697 15.2135V15.2145C16.9887 15.3115 16.9997 15.4115 16.9997 15.5145C16.9997 16.3375 16.3307 17.0065 15.5077 17.0065ZM6.5357 19.0005C5.7127 19.0005 5.0437 18.3305 5.0437 17.5075C5.0437 16.6855 5.7127 16.0155 6.5357 16.0155C7.2557 16.0155 7.8577 16.5275 7.9977 17.2065V17.2095C8.0177 17.3055 8.0287 17.4055 8.0287 17.5075C8.0287 18.3305 7.3597 19.0005 6.5357 19.0005ZM18.9467 14.9925V4.00046C18.9467 3.69646 18.8097 3.40946 18.5727 3.21946C18.3357 3.03046 18.0247 2.95846 17.7307 3.02446L8.7587 5.01746C8.3007 5.11946 7.9757 5.52546 7.9757 5.99346V14.3345C7.5347 14.1345 7.0507 14.0155 6.5357 14.0155C4.6107 14.0155 3.0437 15.5825 3.0437 17.5075C3.0437 19.4335 4.6107 21.0005 6.5357 21.0005C8.4617 21.0005 10.0287 19.4335 10.0287 17.5075C10.0287 17.3295 10.0017 17.1575 9.9757 16.9855V6.79646L16.9467 5.24646V12.3405C16.5067 12.1405 16.0227 12.0225 15.5077 12.0225C13.5817 12.0225 12.0157 13.5885 12.0157 15.5145C12.0157 17.4405 13.5817 19.0065 15.5077 19.0065C17.4337 19.0065 18.9997 17.4405 18.9997 15.5145C18.9997 15.3355 18.9737 15.1645 18.9467 14.9925Z" fill="#232729"/>
</svg>
