<svg width="24" height="24" viewBox="0 0 24 24" fill="none" xmlns="http://www.w3.org/2000/svg">
<path fill-rule="evenodd" clip-rule="evenodd" d="M19.7398 4.26051C19.3928 3.91251 18.8298 3.91251 18.4828 4.26051L4.26076 18.4825C4.08676 18.6565 3.99976 18.8835 3.99976 19.1115C3.99976 19.3385 4.08676 19.5665 4.26076 19.7395C4.60776 20.0865 5.16976 20.0865 5.51776 19.7395L19.7398 5.51751C20.0868 5.16951 20.0868 4.60751 19.7398 4.26051ZM16.0001 18.9998C15.1731 18.9998 14.5001 18.3268 14.5001 17.4998C14.5001 16.6728 15.1731 15.9998 16.0001 15.9998C16.8271 15.9998 17.5001 16.6728 17.5001 17.4998C17.5001 18.3268 16.8271 18.9998 16.0001 18.9998ZM16.0001 13.9998C14.0701 13.9998 12.5001 15.5698 12.5001 17.4998C12.5001 19.4298 14.0701 20.9998 16.0001 20.9998C17.9301 20.9998 19.5001 19.4298 19.5001 17.4998C19.5001 15.5698 17.9301 13.9998 16.0001 13.9998ZM8.00006 5.99981C8.82706 5.99981 9.50006 6.67281 9.50006 7.49981C9.50006 8.32681 8.82706 8.99981 8.00006 8.99981C7.17306 8.99981 6.50006 8.32681 6.50006 7.49981C6.50006 6.67281 7.17306 5.99981 8.00006 5.99981ZM8.00006 10.9998C9.93006 10.9998 11.5001 9.42981 11.5001 7.49981C11.5001 5.56981 9.93006 3.99981 8.00006 3.99981C6.07006 3.99981 4.50006 5.56981 4.50006 7.49981C4.50006 9.42981 6.07006 10.9998 8.00006 10.9998Z" fill="#232729"/>
</svg>
