<svg width="24" height="24" viewBox="0 0 24 24" fill="none" xmlns="http://www.w3.org/2000/svg">
<path fill-rule="evenodd" clip-rule="evenodd" d="M13 7.142C12.679 7.059 12.347 7 12 7C11.653 7 11.321 7.059 11 7.142V3C11 2.447 11.448 2 12 2C12.552 2 13 2.447 13 3V7.142ZM5.49951 18C5.27151 18 5.04351 17.923 4.85551 17.765C2.69151 15.943 1.49951 13.541 1.49951 11C1.49951 8.459 2.69151 6.057 4.85551 4.235C5.27751 3.878 5.90851 3.933 6.26551 4.356C6.62051 4.778 6.56651 5.409 6.14451 5.765C4.43851 7.2 3.49951 9.06 3.49951 11C3.49951 12.94 4.43851 14.8 6.14451 16.235C6.56651 16.591 6.62051 17.222 6.26551 17.644C6.06751 17.879 5.78451 18 5.49951 18ZM12 12C11.449 12 11 11.552 11 11C11 10.448 11.449 10 12 10C12.551 10 13 10.448 13 11C13 11.552 12.551 12 12 12ZM12 15C11.653 15 11.321 14.941 11 14.858V20C11 20.553 11.448 21 12 21C12.552 21 13 20.553 13 20V14.858C12.679 14.941 12.347 15 12 15ZM15.2345 15.645C15.4335 15.879 15.7155 16 16.0005 16C16.2285 16 16.4565 15.923 16.6445 15.765C18.1635 14.485 19.0005 12.793 19.0005 11C19.0005 9.207 18.1635 7.515 16.6445 6.235C16.2225 5.879 15.5905 5.934 15.2345 6.355C14.8795 6.778 14.9335 7.409 15.3555 7.765C16.4165 8.657 17.0005 9.807 17.0005 11C17.0005 12.193 16.4165 13.343 15.3555 14.235C14.9335 14.591 14.8795 15.222 15.2345 15.645ZM7.99951 16C7.77151 16 7.54351 15.923 7.35551 15.765C5.83651 14.485 4.99951 12.793 4.99951 11C4.99951 9.207 5.83651 7.515 7.35551 6.235C7.77751 5.879 8.40851 5.933 8.76551 6.355C9.12051 6.778 9.06651 7.409 8.64451 7.765C7.58351 8.657 6.99951 9.807 6.99951 11C6.99951 12.193 7.58351 13.343 8.64451 14.235C9.06651 14.591 9.12051 15.222 8.76551 15.645C8.56751 15.879 8.28451 16 7.99951 16ZM17.7345 17.644C17.9325 17.879 18.2155 18 18.5005 18C18.7285 18 18.9565 17.923 19.1445 17.765C21.3085 15.943 22.5005 13.541 22.5005 11C22.5005 8.459 21.3085 6.057 19.1445 4.235C18.7215 3.879 18.0905 3.933 17.7345 4.356C17.3795 4.778 17.4335 5.409 17.8555 5.765C19.5615 7.2 20.5005 9.06 20.5005 11C20.5005 12.94 19.5615 14.8 17.8555 16.235C17.4335 16.591 17.3795 17.222 17.7345 17.644Z" fill="#232729"/>
</svg>
