<svg width="24" height="24" viewBox="0 0 24 24" fill="none" xmlns="http://www.w3.org/2000/svg">
<path fill-rule="evenodd" clip-rule="evenodd" d="M12 13.7019C12.192 13.7019 12.385 13.7579 12.552 13.8679L17.432 17.0989L12 6.23593L6.56798 17.0989L11.448 13.8679C11.615 13.7579 11.808 13.7019 12 13.7019ZM20 20.9999C19.808 20.9999 19.616 20.9449 19.448 20.8339L12 15.9009L4.55198 20.8339C4.17398 21.0829 3.67598 21.0489 3.33698 20.7489C2.99798 20.4479 2.90298 19.9579 3.10498 19.5529L11.105 3.55293C11.444 2.87493 12.556 2.87493 12.895 3.55293L20.895 19.5529C21.097 19.9579 21.002 20.4479 20.663 20.7489C20.475 20.9149 20.238 20.9999 20 20.9999Z" fill="#232729"/>
</svg>
