<svg width="24" height="24" viewBox="0 0 24 24" fill="none" xmlns="http://www.w3.org/2000/svg">
<path fill-rule="evenodd" clip-rule="evenodd" d="M15.8018 7.23249L16.5348 6.50049L15.8018 5.76749C15.3998 5.36449 15.3998 4.70549 15.8018 4.30149C16.2048 3.89949 16.8638 3.89949 17.2678 4.30149L17.9998 5.03549L18.7328 4.30149C19.1358 3.89949 19.7948 3.89949 20.1978 4.30149C20.6008 4.70549 20.6008 5.36449 20.1978 5.76749L19.4648 6.50049L20.1978 7.23249C20.6008 7.63549 20.6008 8.29449 20.1978 8.69849C19.7948 9.10049 19.1358 9.10049 18.7328 8.69849L17.9998 7.96449L17.2678 8.69849C16.8638 9.10049 16.2048 9.10049 15.8018 8.69849C15.3998 8.29449 15.3998 7.63549 15.8018 7.23249ZM17.4008 20.0005C10.0118 20.0005 3.99976 13.9885 3.99976 6.59949C3.99976 5.16649 5.16576 4.00049 6.59976 4.00049C6.70876 4.00049 6.81776 4.00649 6.92776 4.02149L7.98876 8.64149C7.81276 8.73349 7.62076 8.83349 7.44376 8.92649C6.57276 9.38149 5.94376 9.71149 6.26576 10.5135C7.44076 13.8605 10.1398 16.5595 13.4468 17.7195C14.2938 18.0585 14.6178 17.4265 15.0728 16.5565C15.1668 16.3785 15.2668 16.1875 15.3588 16.0115L19.9788 17.0725C19.9928 17.1795 19.9998 17.2895 19.9998 17.4005C19.9998 18.8345 18.8338 20.0005 17.4008 20.0005ZM21.9358 16.6385C21.8958 16.3885 21.8328 16.1435 21.7508 15.9085C21.6388 15.5835 21.3658 15.3385 21.0308 15.2615L15.0668 13.8925C14.7378 13.8195 14.3938 13.9125 14.1508 14.1455C14.0078 14.2825 14.0048 14.2855 13.3548 15.5275C11.2148 14.5525 9.46576 12.8065 8.47476 10.6445C9.71376 9.99549 9.71776 9.99249 9.85476 9.84949C10.0878 9.60649 10.1828 9.26149 10.1078 8.93349L8.73876 2.96949C8.66076 2.63349 8.41676 2.36149 8.09176 2.24949C7.85476 2.16649 7.60876 2.10449 7.36476 2.06549C7.11576 2.02249 6.86076 2.00049 6.59976 2.00049C4.06376 2.00049 1.99976 4.06349 1.99976 6.59949C1.99976 15.0915 8.90776 22.0005 17.4008 22.0005C19.9368 22.0005 21.9998 19.9365 21.9998 17.4005C21.9998 17.1415 21.9778 16.8865 21.9358 16.6385Z" fill="#232729"/>
</svg>
