<svg width="24" height="24" viewBox="0 0 24 24" fill="none" xmlns="http://www.w3.org/2000/svg">
<path fill-rule="evenodd" clip-rule="evenodd" d="M11.9966 5.42851L15.8806 9.38751C17.2526 10.7845 17.7446 12.7395 17.3716 14.5425L18.9796 16.1515C20.0266 13.4185 19.4706 10.1905 17.3086 7.98751L12.7096 3.29951C12.5216 3.10851 12.2646 2.99951 11.9966 2.99951H11.9956C11.7266 2.99951 11.4696 3.10851 11.2816 3.30051L8.73161 5.90351L10.1456 7.31851L11.9966 5.42851ZM12.0024 18.9998H12.0004C10.5354 18.9998 9.15641 18.4178 8.11841 17.3598C6.22741 15.4338 5.99641 12.4448 7.42541 10.2538L5.99341 8.82181C3.80741 11.8038 4.03441 16.0548 6.69141 18.7608C8.10841 20.2048 9.99341 20.9998 12.0004 20.9998H12.0024C13.6824 20.9988 15.2724 20.4358 16.5784 19.4058L15.1474 17.9758C14.2304 18.6348 13.1454 18.9988 12.0024 18.9998ZM4.70701 3.29281L20.707 19.2928C21.098 19.6838 21.098 20.3158 20.707 20.7068C20.512 20.9018 20.256 20.9998 20 20.9998C19.744 20.9998 19.488 20.9018 19.293 20.7068L3.29301 4.70681C2.90201 4.31581 2.90201 3.68381 3.29301 3.29281C3.68401 2.90181 4.31601 2.90181 4.70701 3.29281Z" fill="#232729"/>
</svg>
