<svg width="24" height="24" viewBox="0 0 24 24" fill="none" xmlns="http://www.w3.org/2000/svg">
<path fill-rule="evenodd" clip-rule="evenodd" d="M12.9795 2.40404L19.9805 6.34204C20.6105 6.69704 21.0005 7.36504 21.0005 8.08504V8.23004C21.0005 11.017 20.2255 13.696 18.8385 16.011L17.3735 14.544C18.4185 12.639 19.0005 10.475 19.0005 8.23004V8.08504L12.0005 4.14704L8.78451 5.95604L7.31551 4.48804L11.0195 2.40404C11.6255 2.06504 12.3765 2.06404 12.9795 2.40404ZM4.70701 3.29324C4.31601 2.90224 3.68401 2.90224 3.29301 3.29324C2.90201 3.68424 2.90201 4.31624 3.29301 4.70724L19.293 20.7072C19.488 20.9022 19.744 21.0002 20 21.0002C20.256 21.0002 20.512 20.9022 20.707 20.7072C21.098 20.3162 21.098 19.6842 20.707 19.2932L4.70701 3.29324ZM12.3018 19.6838L11.9998 19.8538L11.6978 19.6838C7.56681 17.3588 4.99981 12.9698 4.99981 8.22984V8.08484L5.16381 7.99284L3.73181 6.55984C3.28081 6.93584 2.99981 7.48684 2.99981 8.08484V8.22984C2.99981 13.6918 5.95681 18.7478 10.7178 21.4258L11.0208 21.5968C11.3228 21.7668 11.6608 21.8508 11.9998 21.8508C12.3388 21.8508 12.6778 21.7658 12.9808 21.5958L13.2818 21.4258C14.4048 20.7948 15.4218 20.0278 16.3288 19.1578L14.9148 17.7438C14.1358 18.4868 13.2628 19.1428 12.3018 19.6838Z" fill="#232729"/>
</svg>
